<?xml version="1.0" standalone="no"?>
<!DOCTYPE svg PUBLIC "-//W3C//DTD SVG 20010904//EN"
 "http://www.w3.org/TR/2001/REC-SVG-20010904/DTD/svg10.dtd">
<svg version="1.0" xmlns="http://www.w3.org/2000/svg"
 width="2000.000000pt" height="2000.000000pt" viewBox="0 0 2000.000000 2000.000000"
 preserveAspectRatio="xMidYMid meet">

<g transform="translate(0.000000,2000.000000) scale(0.100000,-0.100000)"
fill="#000000" stroke="none">
<path d="M8210 16100 c-47 -5 -153 -13 -236 -19 -82 -6 -168 -17 -190 -24 -21
-8 -72 -17 -113 -21 -40 -4 -85 -12 -100 -17 -14 -6 -55 -16 -91 -24 -36 -7
-78 -18 -95 -23 -16 -6 -64 -21 -105 -32 -90 -26 -231 -78 -245 -91 -5 -5 -16
-9 -25 -9 -9 0 -33 -9 -55 -20 -22 -11 -43 -20 -48 -20 -9 0 -114 -46 -137
-61 -8 -5 -26 -14 -40 -20 -101 -43 -262 -133 -417 -235 -79 -52 -146 -94
-151 -94 -5 0 -17 -9 -27 -20 -10 -11 -22 -20 -27 -20 -48 0 -658 -580 -658
-626 0 -10 -149 -208 -185 -245 -8 -9 -15 -19 -15 -23 0 -4 -18 -31 -40 -61
-22 -30 -40 -57 -40 -61 0 -4 -17 -32 -37 -63 -45 -67 -49 -75 -135 -244 -82
-162 -118 -241 -118 -254 0 -6 -6 -16 -14 -22 -8 -7 -18 -25 -21 -41 -3 -16
-12 -34 -20 -40 -7 -6 -16 -30 -19 -54 -4 -24 -13 -52 -21 -62 -8 -11 -15 -28
-15 -39 -1 -11 -8 -38 -16 -60 -9 -22 -20 -60 -25 -85 -5 -25 -16 -67 -24 -95
-50 -172 -83 -343 -96 -500 -6 -75 -8 -1220 -7 -3065 3 -2731 4 -2949 20
-3005 9 -33 21 -89 27 -125 19 -122 62 -292 96 -380 8 -19 19 -51 24 -70 17
-59 48 -143 65 -175 9 -16 16 -35 16 -41 0 -18 103 -249 131 -294 5 -8 14 -26
19 -40 6 -14 14 -32 20 -40 5 -8 17 -31 25 -49 9 -19 28 -51 43 -70 15 -20 34
-48 42 -63 59 -106 149 -244 245 -374 29 -39 60 -84 68 -100 18 -35 194 -243
229 -270 14 -11 88 -79 164 -151 193 -182 202 -190 263 -231 30 -20 64 -45 76
-56 43 -41 193 -148 231 -165 20 -9 90 -53 110 -70 30 -25 341 -167 394 -181
19 -4 64 -19 100 -33 189 -71 284 -101 420 -136 155 -40 463 -77 755 -90 334
-16 3512 -18 3528 -2 9 9 13 497 17 2131 5 2079 5 2119 24 2133 14 10 63 16
160 20 207 9 394 24 451 37 28 6 88 16 135 21 47 5 117 16 155 25 39 9 106 24
150 34 44 10 98 22 120 25 48 8 269 80 307 101 14 8 31 14 38 14 13 0 77 29
250 112 119 58 170 88 338 199 41 27 76 49 79 49 3 0 58 39 122 87 106 80 143
111 220 182 14 13 58 47 96 76 73 54 157 140 212 216 17 24 42 55 55 69 21 22
87 105 135 169 10 13 26 32 35 42 9 10 49 66 88 126 38 59 77 117 85 128 8 10
15 23 15 27 0 5 15 30 34 56 19 27 48 77 65 113 18 35 36 71 41 79 5 8 17 35
28 60 11 25 31 70 44 100 34 75 69 168 118 310 33 100 53 173 65 245 21 123
44 252 60 335 8 41 19 158 25 260 6 102 15 250 20 330 15 229 13 911 -4 996
-7 39 -14 111 -15 160 -2 154 -12 268 -26 299 -7 17 -16 63 -20 104 -4 41 -14
89 -21 107 -8 18 -14 55 -14 82 0 26 -7 75 -16 107 -9 33 -22 83 -29 110 -36
135 -57 201 -67 210 -7 7 -9 1 -4 -20 5 -24 4 -27 -5 -12 -5 10 -10 28 -9 40
4 49 0 82 -9 68 -14 -22 -33 -2 -31 33 3 48 1 70 -7 63 -13 -13 -33 16 -33 48
0 18 -7 38 -15 45 -8 7 -17 28 -21 49 -4 20 -13 43 -20 52 -8 8 -16 32 -19 53
-2 23 -13 44 -25 53 -11 8 -20 21 -20 29 0 9 -9 27 -20 41 -11 14 -20 32 -20
40 0 8 -9 26 -20 40 -11 14 -20 33 -20 43 0 9 -9 25 -20 35 -11 10 -20 24 -20
30 0 7 -7 18 -16 25 -8 8 -21 28 -29 47 -8 18 -19 33 -24 33 -6 0 -11 6 -11
13 0 7 -11 28 -25 47 -13 18 -22 37 -20 41 3 4 -3 14 -13 21 -25 18 -142 164
-142 177 0 6 -5 11 -11 11 -5 0 -7 5 -4 10 3 6 1 10 -5 10 -13 0 -60 49 -60
62 0 6 -9 17 -21 26 -11 10 -21 24 -22 32 -4 24 -18 41 -28 35 -5 -4 -9 1 -9
9 0 15 -169 196 -183 196 -5 0 -14 6 -22 13 -7 6 -26 22 -42 34 -15 12 -40 32
-55 45 -15 13 -43 34 -62 48 -20 14 -36 30 -36 35 0 10 -25 28 -116 80 -29 17
-61 38 -71 48 -11 9 -26 17 -34 17 -9 0 -40 18 -69 40 -29 22 -56 40 -60 40
-3 0 -15 8 -26 18 -24 21 -51 38 -84 54 -14 7 -31 18 -38 25 -7 7 -25 16 -40
19 -15 4 -32 11 -38 15 -28 22 -126 69 -143 69 -11 0 -22 4 -25 9 -7 10 -95
54 -151 74 -22 8 -75 29 -118 46 -43 17 -87 31 -97 31 -11 0 -34 9 -52 20 -18
11 -45 20 -60 20 -15 0 -33 7 -42 15 -8 8 -36 18 -63 21 -26 4 -58 13 -71 21
-13 8 -46 17 -75 20 -29 3 -77 12 -107 21 -30 8 -86 18 -125 22 -38 5 -106 13
-150 19 -107 15 -386 30 -433 24 -29 -4 -41 0 -56 16 l-19 21 -1726 -1 c-949
-1 -1764 -5 -1811 -9z m2598 -456 c28 -4 52 -10 52 -14 0 -4 -39 -13 -87 -20
-96 -13 -210 -48 -282 -85 -296 -151 -287 -146 -401 -243 -235 -203 -436 -489
-512 -732 -43 -136 -98 -369 -105 -443 -10 -109 13 -102 -320 -104 -1158 -10
-1187 -10 -1263 -27 -171 -37 -258 -69 -459 -169 -186 -93 -210 -108 -275
-172 -194 -192 -343 -418 -449 -680 -77 -193 -107 -367 -107 -630 l0 -145 735
0 735 0 1 113 c1 61 2 126 3 142 2 17 3 54 4 83 l2 52 800 0 c440 0 800 -3
800 -7 0 -7 -37 -90 -50 -113 -27 -45 -117 -213 -140 -260 -63 -128 -84 -237
-83 -420 1 -239 30 -360 142 -590 102 -212 214 -343 394 -464 112 -74 232
-124 440 -181 31 -8 57 -20 57 -25 0 -19 -32 -39 -80 -49 -36 -8 -831 -11
-2695 -11 l-2645 0 0 1103 c0 911 3 1124 15 1228 41 352 155 720 306 994 25
44 59 114 78 155 42 95 161 282 271 425 91 120 220 250 488 496 307 281 647
482 1017 602 378 122 634 174 920 186 210 10 2620 13 2693 5z m1107 -3089
c411 -30 844 -280 1033 -597 131 -220 192 -414 192 -611 l0 -78 -58 -57 c-32
-31 -79 -76 -103 -98 -25 -23 -56 -55 -70 -71 -48 -57 -282 -177 -454 -233
-207 -68 -245 -72 -745 -80 -250 -3 -463 -10 -472 -14 -33 -15 0 50 50 97 90
84 171 177 218 249 62 97 150 271 169 333 67 231 75 319 75 780 0 210 3 385 7
389 4 4 21 5 38 2 16 -3 71 -8 120 -11z m-1054 -1911 c-25 -8 -47 -12 -49 -9
-5 5 56 23 78 23 8 0 -5 -6 -29 -14z m-91 -37 c-14 -7 -52 -24 -85 -37 -33
-12 -64 -27 -69 -32 -6 -4 -15 -8 -20 -8 -35 0 141 87 179 89 17 1 16 -1 -5
-12z m-220 -101 c0 -3 -4 -8 -10 -11 -5 -3 -10 -1 -10 4 0 6 5 11 10 11 6 0
10 -2 10 -4z m-35 -25 c-3 -6 -11 -11 -17 -11 -6 0 -6 6 2 15 14 17 26 13 15
-4z m-3180 -1053 c4 -4 -15 -16 -41 -28 -100 -46 -153 -86 -291 -222 -113
-111 -206 -242 -284 -397 -107 -216 -130 -339 -128 -701 0 -129 0 -246 -2
-260 -6 -71 2 -407 12 -485 30 -250 132 -500 299 -735 70 -98 217 -273 254
-301 36 -27 253 -149 321 -179 141 -63 327 -108 521 -125 l71 -6 7 38 c3 21 6
106 6 189 l0 152 353 7 c193 3 493 5 665 3 l314 -3 4 -90 c9 -217 46 -400 127
-641 64 -190 57 -175 162 -334 179 -270 381 -456 670 -617 109 -60 177 -86
270 -102 120 -21 125 -22 119 -32 -8 -13 -3472 -12 -3627 2 -196 17 -354 53
-512 116 -177 70 -261 115 -405 216 -177 123 -242 178 -423 362 -234 236 -293
318 -432 600 -180 364 -247 545 -294 800 -51 273 -52 292 -58 1563 -4 816 -2
1196 5 1205 8 9 254 12 1160 12 633 0 1154 -3 1157 -7z m2138 -3065 c-7 -2
-19 -2 -25 0 -7 3 -2 5 12 5 14 0 19 -2 13 -5z"/>
</g>
</svg>
